<mxfile host="app.diagrams.net" agent="Mozilla/5.0 (Windows NT 10.0; Win64; x64) AppleWebKit/537.36 (KHTML, like Gecko) Chrome/135.0.0.0 Safari/537.36" version="26.1.3">
  <diagram name="6.4 설계서" id="UpQRPYrEkq4hLOGEVcAn">
    <mxGraphModel dx="1434" dy="738" grid="1" gridSize="10" guides="1" tooltips="1" connect="1" arrows="1" fold="1" page="1" pageScale="1" pageWidth="827" pageHeight="1169" math="0" shadow="0">
      <root>
        <mxCell id="0" />
        <mxCell id="1" parent="0" />
        <mxCell id="CSy488U4jaaEnT2uwnfr-1" value="모델별 성능 평가" style="rounded=0;whiteSpace=wrap;html=1;strokeWidth=1;fontStyle=1" vertex="1" parent="1">
          <mxGeometry x="80" y="180" width="120" height="40" as="geometry" />
        </mxCell>
        <mxCell id="CSy488U4jaaEnT2uwnfr-2" value="비교 분석" style="rounded=0;whiteSpace=wrap;html=1;strokeWidth=1;fontStyle=1" vertex="1" parent="1">
          <mxGeometry x="240" y="180" width="120" height="40" as="geometry" />
        </mxCell>
        <mxCell id="CSy488U4jaaEnT2uwnfr-6" value="최종 모델 선택" style="rounded=0;whiteSpace=wrap;html=1;strokeWidth=1;fontStyle=1" vertex="1" parent="1">
          <mxGeometry x="400" y="180" width="120" height="40" as="geometry" />
        </mxCell>
        <mxCell id="CSy488U4jaaEnT2uwnfr-7" value="모델 최적화" style="rounded=0;whiteSpace=wrap;html=1;strokeWidth=1;fontStyle=1" vertex="1" parent="1">
          <mxGeometry x="560" y="180" width="120" height="40" as="geometry" />
        </mxCell>
        <mxCell id="CSy488U4jaaEnT2uwnfr-8" value="모델 테스트" style="rounded=0;whiteSpace=wrap;html=1;strokeWidth=1;fontStyle=1" vertex="1" parent="1">
          <mxGeometry x="720" y="180" width="120" height="40" as="geometry" />
        </mxCell>
        <mxCell id="CSy488U4jaaEnT2uwnfr-9" value="최종 모델 저장" style="rounded=0;whiteSpace=wrap;html=1;strokeWidth=1;fontStyle=1" vertex="1" parent="1">
          <mxGeometry x="880" y="180" width="120" height="40" as="geometry" />
        </mxCell>
        <mxCell id="CSy488U4jaaEnT2uwnfr-10" value="" style="endArrow=none;dashed=1;html=1;rounded=0;entryX=0.5;entryY=1;entryDx=0;entryDy=0;fontSize=11;" edge="1" parent="1" target="CSy488U4jaaEnT2uwnfr-1">
          <mxGeometry width="50" height="50" relative="1" as="geometry">
            <mxPoint x="140" y="640" as="sourcePoint" />
            <mxPoint x="165" y="280" as="targetPoint" />
          </mxGeometry>
        </mxCell>
        <mxCell id="CSy488U4jaaEnT2uwnfr-11" value="" style="endArrow=none;dashed=1;html=1;rounded=0;entryX=0.5;entryY=1;entryDx=0;entryDy=0;fontSize=11;" edge="1" parent="1">
          <mxGeometry width="50" height="50" relative="1" as="geometry">
            <mxPoint x="299.5" y="640" as="sourcePoint" />
            <mxPoint x="299.5" y="220" as="targetPoint" />
          </mxGeometry>
        </mxCell>
        <mxCell id="CSy488U4jaaEnT2uwnfr-12" value="" style="endArrow=none;dashed=1;html=1;rounded=0;entryX=0.5;entryY=1;entryDx=0;entryDy=0;fontSize=11;" edge="1" parent="1">
          <mxGeometry width="50" height="50" relative="1" as="geometry">
            <mxPoint x="459.5" y="640" as="sourcePoint" />
            <mxPoint x="459.5" y="220" as="targetPoint" />
          </mxGeometry>
        </mxCell>
        <mxCell id="CSy488U4jaaEnT2uwnfr-13" value="" style="endArrow=none;dashed=1;html=1;rounded=0;entryX=0.5;entryY=1;entryDx=0;entryDy=0;fontSize=11;" edge="1" parent="1">
          <mxGeometry width="50" height="50" relative="1" as="geometry">
            <mxPoint x="619.5" y="640" as="sourcePoint" />
            <mxPoint x="619.5" y="220" as="targetPoint" />
          </mxGeometry>
        </mxCell>
        <mxCell id="CSy488U4jaaEnT2uwnfr-14" value="" style="endArrow=none;dashed=1;html=1;rounded=0;entryX=0.5;entryY=1;entryDx=0;entryDy=0;fontSize=11;" edge="1" parent="1">
          <mxGeometry width="50" height="50" relative="1" as="geometry">
            <mxPoint x="779.5" y="640" as="sourcePoint" />
            <mxPoint x="779.5" y="220" as="targetPoint" />
          </mxGeometry>
        </mxCell>
      </root>
    </mxGraphModel>
  </diagram>
</mxfile>
